<svg width="32" height="32" viewBox="0 0 32 32" fill="none" xmlns="http://www.w3.org/2000/svg">
<path d="M8.40625 12.8125L6.29688 11.9219C7.89062 8.17188 11.6406 5.5 16 5.5C18.4375 5.5 20.7812 6.48438 22.5156 8.21875L22.7969 8.45312L23.7812 7.46875L25.375 5.875L26.9219 7.46875L27.25 7.75V12.25V14.5H25H20.5L20.1719 14.2188L18.625 12.625L20.1719 11.0781L21.2031 10.0469L20.9219 9.8125C19.6094 8.5 17.8281 7.75 16 7.75C12.5781 7.75 9.625 9.85938 8.40625 12.8125ZM23.5469 19.2812L25.6562 20.1719C24.0156 23.875 20.3125 26.5 16 26.5C13.5156 26.5 11.1719 25.5625 9.4375 23.8281L9.20312 23.5469L8.17188 24.5781L6.625 26.125L5.03125 24.5781L4.75 24.25V19.75V17.5H7H11.5L11.7812 17.8281L13.375 19.375L11.7812 20.9688L10.7969 21.9531L11.0312 22.2344C12.3438 23.5469 14.125 24.25 16 24.25C19.375 24.25 22.3281 22.2344 23.5469 19.2812ZM22.1406 12.25H25V9.4375L22.1406 12.25ZM9.8125 19.75H7V22.6094L9.8125 19.75Z" fill="#66E5FF"/>
</svg>
