<svg width="300" height="12" viewBox="0 0 300 12" fill="none" xmlns="http://www.w3.org/2000/svg">
<mask id="mask0_167_5118" style="mask-type:luminance" maskUnits="userSpaceOnUse" x="0" y="0" width="300" height="12">
<path d="M300 0H0V12H300V0Z" fill="white"/>
</mask>
<g mask="url(#mask0_167_5118)">
<path fill-rule="evenodd" clip-rule="evenodd" d="M113.1 0.887454C147.926 -0.0544817 176.806 -0.294481 205.685 0.399711C228.36 0.946808 251.021 1.721 273.409 4.10294C280.56 4.86423 287.603 6.00229 294.673 7.01907C296.067 7.22036 297.503 7.54552 298.647 8.041C299.39 8.36101 300.059 9.10939 299.997 9.63584C299.907 10.4384 298.635 10.7791 297.301 10.7739C296.455 10.7687 295.613 10.6836 294.776 10.6191C279.982 9.48874 265.219 8.13907 250.382 7.28487C236.02 6.45907 221.589 5.96617 207.165 5.63326C171.364 4.80487 135.575 5.17906 99.8123 6.45649C72.909 7.41649 46.1009 9.00616 19.3704 11.0449C17.2039 11.21 14.7484 10.9829 12.9142 11.5274C9.84157 12.4358 6.91131 11.7545 3.95083 11.77C1.50392 11.7829 0.114316 10.9907 0.0150586 9.99198C-0.0885147 8.96745 1.08963 8.29648 3.66602 8.05132C13.9716 7.0681 24.2598 6.02036 34.5912 5.161C62.6121 2.82552 90.8099 1.56358 113.1 0.887454Z" fill="#E943C9"/>
</g>
</svg>
