<svg width="16" height="11" viewBox="0 0 16 11" fill="none" xmlns="http://www.w3.org/2000/svg">
<g clip-path="url(#clip0_1737_321)">
<path d="M6.73997 6.62706C6.9215 6.98682 7.01259 7.39695 7.01259 7.85682C7.01259 8.28956 6.93373 8.6955 6.7757 9.07463C6.61798 9.45376 6.39203 9.78671 6.09817 10.0738C5.8043 10.3606 5.43416 10.587 4.98741 10.752C4.54066 10.917 4.04756 11 3.50875 11C2.83895 11 2.21774 10.8866 1.64482 10.6599C1.0719 10.4332 0.610018 10.1859 0.259505 9.9175C0.166807 9.84452 0.0985717 9.76895 0.0547978 9.6908C0.0206799 9.63235 0.003621 9.56162 0.003621 9.47863C-0.001207 9.45441 -0.001207 9.42986 0.003621 9.40532C0.013277 9.29326 0.0670288 9.17377 0.164233 9.04686L0.500261 8.57149C0.617099 8.41066 0.743593 8.32056 0.880064 8.30086C0.899376 8.29602 0.921263 8.29376 0.945725 8.29376C1.0661 8.29376 1.20322 8.34091 1.35739 8.43488C2.09608 8.96515 2.81287 9.22996 3.50811 9.22996C3.99638 9.22996 4.38326 9.11726 4.66908 8.89217C4.95458 8.66708 5.09748 8.3732 5.09748 8.01119C5.09748 7.79578 5.04148 7.59879 4.92915 7.4202C4.81682 7.24162 4.66425 7.08628 4.47145 6.95388C4.27866 6.8218 4.05753 6.69456 3.80841 6.57216C3.55928 6.44977 3.29825 6.32996 3.02498 6.21241C2.7514 6.09486 2.47942 5.96988 2.20905 5.8378C1.93868 5.70571 1.68023 5.55264 1.434 5.3789C1.18745 5.20516 0.9689 5.0143 0.778354 4.80632C0.587487 4.59835 0.436532 4.34613 0.325488 4.05C0.214444 3.75386 0.159083 3.42963 0.159083 3.07698C0.159083 2.46953 0.317119 1.92957 0.633836 1.4584C0.950553 0.986906 1.37928 0.626182 1.91969 0.37558C2.46043 0.125301 3.06683 0 3.73889 0C4.30408 0 4.83227 0.0842875 5.3244 0.252217C5.81654 0.420469 6.20117 0.607128 6.47894 0.811872C6.67882 0.95332 6.7786 1.11899 6.7786 1.3092C6.7786 1.42158 6.7419 1.54075 6.66852 1.66766L6.39654 2.15757C6.28389 2.37684 6.13003 2.48664 5.93402 2.48664C5.81654 2.48664 5.68682 2.44692 5.5452 2.36715C5.35433 2.25283 5.18761 2.1595 5.04599 2.08716C4.90404 2.01483 4.70706 1.9441 4.45504 1.87435C4.20302 1.80459 3.94971 1.76971 3.69511 1.76971C3.20072 1.76971 2.80676 1.87984 2.51322 2.10008C2.21967 2.32033 2.0729 2.61162 2.0729 2.97364C2.0729 3.24297 2.16431 3.48162 2.34746 3.6896C2.5306 3.89757 2.76717 4.07519 3.05814 4.22212C3.34846 4.36906 3.66936 4.51471 4.02116 4.65906C4.37264 4.80374 4.72412 4.96521 5.07528 5.1438C5.42643 5.32238 5.74637 5.52454 6.03444 5.74963C6.32283 5.97472 6.55779 6.26731 6.73933 6.62706H6.73997ZM16.0001 7.48576C16.0001 8.43618 15.6573 9.29423 15.0348 9.90233C14.3653 10.5563 13.4068 10.9018 12.2632 10.9018H9.12758C8.39662 10.9018 7.84558 10.3493 7.84558 9.61685V1.38315C7.84558 1.02469 7.97465 0.697875 8.20961 0.462774C8.44426 0.227673 8.77031 0.0981739 9.1279 0.0981739H11.7782C12.7904 0.0981739 13.6482 0.424667 14.2588 1.04245C14.8224 1.61244 15.133 2.39751 15.133 3.25298C15.133 3.92567 14.953 4.48435 14.5835 4.95972C14.9794 5.18836 15.2991 5.48256 15.5334 5.83489C15.8433 6.30057 16.0004 6.85603 16.0004 7.48576H16.0001ZM13.8352 3.25298C13.8352 2.74241 13.6582 2.2819 13.3363 1.9567C12.8796 1.49457 12.2365 1.39769 11.7775 1.39769H9.14271V9.60264H12.2626C13.0608 9.60264 13.7061 9.38465 14.1284 8.97226C14.4986 8.61089 14.7023 8.08288 14.7023 7.48576C14.7023 7.11696 14.6186 6.80403 14.4532 6.55569L14.4513 6.55279V6.55214L14.4503 6.55149L14.4487 6.54859C14.2453 6.19691 13.7345 5.91627 13.3418 5.74253C12.9037 5.54876 12.5168 5.44284 12.5133 5.44219L12.2671 5.37857C12.2568 5.37599 12.2494 5.36759 12.2478 5.35694C12.2461 5.3466 12.251 5.33627 12.26 5.33078L12.4772 5.1987C12.4805 5.19676 12.8239 4.97393 13.1648 4.61643C13.3601 4.41169 13.5156 4.20404 13.6266 3.99897C13.7647 3.7445 13.8346 3.49357 13.8346 3.25298H13.8352Z" fill="url(#paint0_linear_1737_321)"/>
</g>
<defs>
<linearGradient id="paint0_linear_1737_321" x1="13.3482" y1="11.5949" x2="1.86161" y2="0.146762" gradientUnits="userSpaceOnUse">
<stop stop-color="#4632D8"/>
<stop offset="1" stop-color="#9084E8"/>
</linearGradient>
<clipPath id="clip0_1737_321">
<rect width="16" height="11" fill="white"/>
</clipPath>
</defs>
</svg>
